<svg width="24" height="24" viewBox="0 0 24 24" fill="none" xmlns="http://www.w3.org/2000/svg">
<g clip-path="url(#clip0_331_3398)">
<path d="M4.66296 1.21219L1.22714 4.63835C-0.405235 6.28744 -0.413559 8.93895 1.23552 10.5713L2.88461 12.2037C3.2518 12.5777 3.22824 13.1796 2.87857 13.5608L1.23592 15.1715C-0.396449 16.8206 -0.404773 19.4721 1.24431 21.1045L2.90366 22.7752C4.52845 24.3935 7.17997 24.4019 8.83664 22.7668L10.455 21.142C10.829 20.7748 11.4206 20.7601 11.7878 21.134L13.4368 22.7664C15.0859 24.3988 17.7374 24.4071 19.3698 22.758L22.7916 19.3562C24.424 17.7071 24.4323 15.0556 22.7832 13.4232L21.1341 11.7908C20.767 11.4169 20.7905 10.815 21.1402 10.4338L22.7828 8.82299C24.4152 7.17391 24.4235 4.52239 22.7744 2.89002L21.1151 1.21932C19.466 -0.413055 16.8388 -0.407352 15.1821 1.22771L13.5638 2.85249C13.1898 3.21968 12.5982 3.23444 12.231 2.86048L10.5819 1.22811C9.76438 0.399771 8.69436 0.00875725 7.62609 0.00748133C6.55782 0.00620553 5.47727 0.418963 4.66296 1.21219ZM13.519 11.3463L12.6529 10.4899C11.9774 9.80837 11.9786 8.7401 12.6359 8.05056L16.9524 3.77231C17.6097 3.08277 18.7022 3.09807 19.3534 3.7656L20.2439 4.63601C20.9194 5.31757 20.9181 6.38584 20.2365 7.06135L15.9443 11.3536C15.6087 11.7105 15.1591 11.8721 14.7451 11.8598C14.2927 11.8578 13.8619 11.7063 13.519 11.3463ZM4.46591 9.52091L3.7661 8.82533C3.11488 8.1578 3.10589 7.05121 3.77342 6.39999L6.39493 3.76707C7.07649 3.09155 8.16905 3.10686 8.8343 3.75009L9.53411 4.44567C10.2096 5.12722 10.1943 6.21979 9.52679 6.87101L6.90527 9.50393C6.56963 9.86085 6.12003 10.0224 5.69197 10.0344C5.25364 10.0081 4.79853 9.84253 4.46591 9.52091ZM4.6653 20.2289L3.77489 19.3585C3.09937 18.677 3.10065 17.6087 3.7822 16.9332L8.07442 12.6409C8.75597 11.9654 9.82424 11.9667 10.5138 12.6239L11.3659 13.5046C12.0414 14.1862 12.0401 15.2544 11.3829 15.944L7.06634 20.2222C6.74473 20.5548 6.31942 20.7304 5.86706 20.7284C5.41471 20.7264 4.9839 20.5748 4.6653 20.2289ZM15.1845 20.2444L14.4987 19.5246C13.8091 18.8673 13.8244 17.7747 14.492 17.1235L17.1275 14.4663C17.795 13.8151 18.8773 13.7921 19.5528 14.4736L20.2526 15.1692C20.9039 15.8367 20.9129 16.9433 20.2453 17.5945L17.6238 20.2275C17.2639 20.5703 16.8386 20.7459 16.4002 20.7196C15.9722 20.7316 15.5171 20.566 15.1845 20.2444Z" fill="url(#paint0_linear_331_3398)"/>
</g>
<defs>
<linearGradient id="paint0_linear_331_3398" x1="4.99584" y1="24.1451" x2="19.0229" y2="-0.150567" gradientUnits="userSpaceOnUse">
<stop stop-color="#D70B8C"/>
<stop offset="1" stop-color="#812990"/>
</linearGradient>
<clipPath id="clip0_331_3398">
<rect width="24" height="24" fill="white"/>
</clipPath>
</defs>
</svg>
